<?xml version="1.0" encoding="utf-8"?>
<!-- Generator: Adobe Illustrator 19.2.1, SVG Export Plug-In . SVG Version: 6.00 Build 0)  -->
<svg version="1.1" id="Layer_1" xmlns="http://www.w3.org/2000/svg" xmlns:xlink="http://www.w3.org/1999/xlink" x="0px" y="0px"
	 viewBox="0 0 74 69" style="enable-background:new 0 0 74 69;" xml:space="preserve">
<g>
	<g>
		<path d="M47.5,27.3c7.5,0,13.6-6.1,13.6-13.6C61.1,6.1,55,0,47.5,0C40,0,33.9,6.1,33.9,13.6C33.9,21.1,40,27.3,47.5,27.3z
			 M65.7,33.9C65.7,33.9,65.7,33.9,65.7,33.9c-1.8-0.4-7.2-1.2-7.2-1.2c-0.6-0.2-1.3,0.1-1.5,0.7l-8.2,22.4c-0.5,1.3-2.3,1.3-2.8,0
			l-8.2-22.4c-0.2-0.5-0.6-0.8-1.1-0.8c-0.1,0-5.7,0.8-7.6,1.2c-5.1,1.3-8.3,6.3-8.3,11.5V64c0,2.8,2.3,5.1,5.1,5.1h42.9
			c2.8,0,5.1-2.3,5.1-5.1V45.3C74,40.1,70.7,35.5,65.7,33.9z M50.6,32.2c-0.3-0.4-0.8-0.5-1.3-0.5h-3.6c-0.5,0-1,0.2-1.3,0.5
			c-0.5,0.6-0.6,1.3-0.2,2l1.9,2.9l-0.9,7.6l1.8,4.7c0.2,0.5,0.8,0.5,1,0l1.8-4.7l-0.9-7.6l1.9-2.9C51.1,33.6,51.1,32.8,50.6,32.2z"
			/>
	</g>
</g>
<path d="M16.2,30.9c0.6,0.9,0.9,2,0.9,3.2c0,1.9-0.6,3.4-1.8,4.7c-1.2,1.3-3,2-5.2,2.2v3.2H7.1V41c-3.8-0.4-6.2-2.4-7.1-6.1l4.5-1.1
	c0.4,2.3,1.8,3.5,4.1,3.5c1.1,0,1.9-0.2,2.4-0.8c0.5-0.5,0.8-1.1,0.8-1.8c0-0.7-0.3-1.3-0.8-1.7c-0.5-0.4-1.7-0.9-3.4-1.4
	c-1.6-0.5-2.9-1-3.8-1.5C3,29.6,2.2,28.9,1.7,28c-0.6-0.9-0.8-2-0.8-3.2c0-1.6,0.5-3,1.5-4.2c1-1.3,2.6-2,4.7-2.3v-2.5H10v2.5
	c3.3,0.4,5.4,2.1,6.3,5.1l-4,1.5c-0.8-2.1-2-3.1-3.6-3.1c-0.8,0-1.5,0.2-2,0.7c-0.5,0.5-0.7,1-0.7,1.7c0,0.7,0.2,1.2,0.7,1.6
	c0.5,0.4,1.5,0.8,3.1,1.3c1.7,0.6,3.1,1.1,4.1,1.7C14.8,29.3,15.6,30,16.2,30.9z"/>
</svg>
