<?xml version="1.0" encoding="utf-8"?>
<!-- Generator: Adobe Illustrator 19.2.1, SVG Export Plug-In . SVG Version: 6.00 Build 0)  -->
<svg version="1.1" id="Layer_1" xmlns="http://www.w3.org/2000/svg" xmlns:xlink="http://www.w3.org/1999/xlink" x="0px" y="0px"
	 viewBox="0 0 75 66" style="enable-background:new 0 0 75 66;" xml:space="preserve">
<g>
	<g>
		<path d="M73,11.6h-7.4V10c0-1.1-0.9-2-2-2H61V7.4c0-1.1-0.9-2-2-2H46.5c-1.1,0-2,0.9-2,2V8h-2.7c-1.1,0-2,0.9-2,2v1.6h-7.2
			c-1.1,0-2,0.9-2,2V64c0,1.1,0.9,2,2,2H73c1.1,0,2-0.9,2-2V13.6C75,12.5,74.1,11.6,73,11.6z M43.9,12h2.7c1.1,0,2-0.9,2-2V9.4h8.6
			V10c0,1.1,0.9,2,2,2h2.7v6.7H43.9V12z M71.1,62H34.7V15.5h5.3v5.1c0,1.1,0.9,2,2,2h21.8c1.1,0,2-0.9,2-2v-5.1h5.4V62z M63.8,29.4
			H41.9c-1.1,0-2,0.9-2,2c0,1.1,0.9,2,2,2h21.9c1.1,0,2-0.9,2-2C65.8,30.3,64.9,29.4,63.8,29.4z M63.8,43.1H41.9c-1.1,0-2,0.9-2,2
			c0,1.1,0.9,2,2,2h21.9c1.1,0,2-0.9,2-2C65.8,44,64.9,43.1,63.8,43.1z M63.8,36.3H41.9c-1.1,0-2,0.9-2,2c0,1.1,0.9,2,2,2h21.9
			c1.1,0,2-0.9,2-2C65.8,37.2,64.9,36.3,63.8,36.3z M63.8,50H41.9c-1.1,0-2,0.9-2,2c0,1.1,0.9,2,2,2h21.9c1.1,0,2-0.9,2-2
			C65.8,50.9,64.9,50,63.8,50z"/>
	</g>
</g>
<path d="M23.1,22.2c0.8,1.3,1.3,2.9,1.3,4.7c0,2.7-0.9,5-2.6,6.9c-1.7,1.8-4.2,2.9-7.5,3.2v4.7h-4.2V37c-5.4-0.5-8.8-3.5-10.1-9
	l6.4-1.6c0.6,3.4,2.6,5.1,5.9,5.1c1.6,0,2.7-0.4,3.5-1.1c0.7-0.7,1.1-1.6,1.1-2.7c0-1.1-0.4-1.9-1.1-2.4c-0.7-0.6-2.4-1.3-4.9-2.1
	c-2.3-0.8-4.1-1.5-5.4-2.2c-1.3-0.7-2.3-1.8-3.1-3.1c-0.8-1.3-1.2-2.9-1.2-4.6c0-2.3,0.7-4.4,2.1-6.2c1.4-1.8,3.7-3,6.8-3.4V0.2h4.2
	v3.6c4.6,0.5,7.6,3,9,7.5l-5.7,2.2c-1.1-3.1-2.8-4.6-5.2-4.6c-1.2,0-2.1,0.3-2.8,1c-0.7,0.7-1.1,1.5-1.1,2.5c0,1,0.3,1.7,1,2.3
	c0.7,0.5,2.1,1.2,4.4,2c2.5,0.9,4.4,1.7,5.8,2.4C21.1,19.8,22.2,20.9,23.1,22.2z"/>
</svg>
