<?xml version="1.0" encoding="utf-8"?>
<!-- Generator: Adobe Illustrator 19.2.1, SVG Export Plug-In . SVG Version: 6.00 Build 0)  -->
<svg version="1.1" id="Layer_1" xmlns="http://www.w3.org/2000/svg" xmlns:xlink="http://www.w3.org/1999/xlink" x="0px" y="0px"
	 viewBox="0 0 46 63" style="enable-background:new 0 0 46 63;" xml:space="preserve">
<g>
	<g>
		<path d="M43.9,6.4h-7.7V4.8c0-1.1-0.9-2.1-2-2.1h-2.8V2.1c0-1.1-0.9-2.1-2-2.1h-13c-1.1,0-2,0.9-2,2.1v0.6h-2.8
			c-1.1,0-2,0.9-2,2.1v1.6H2c-1.1,0-2,0.9-2,2.1v52.5C0,62.1,0.9,63,2,63h41.9c1.1,0,2-0.9,2-2.1V8.5C46,7.3,45.1,6.4,43.9,6.4z
			 M13.6,6.8h2.8c1.1,0,2-0.9,2-2.1V4.1h8.9v0.6c0,1.1,0.9,2.1,2,2.1h2.8v6.9H13.6V6.8z M41.9,58.9H4.1V10.5h5.5v5.3
			c0,1.1,0.9,2.1,2,2.1h22.6c1.1,0,2-0.9,2-2.1v-5.3h5.6V58.9z M34.4,25H11.6c-1.1,0-2,0.9-2,2.1c0,1.1,0.9,2.1,2,2.1h22.8
			c1.1,0,2-0.9,2-2.1C36.4,25.9,35.5,25,34.4,25z M34.4,39.2H11.6c-1.1,0-2,0.9-2,2.1c0,1.1,0.9,2.1,2,2.1h22.8c1.1,0,2-0.9,2-2.1
			C36.4,40.1,35.5,39.2,34.4,39.2z M34.4,32.1H11.6c-1.1,0-2,0.9-2,2.1c0,1.1,0.9,2.1,2,2.1h22.8c1.1,0,2-0.9,2-2.1
			C36.4,33,35.5,32.1,34.4,32.1z M34.4,46.3H11.6c-1.1,0-2,0.9-2,2.1c0,1.1,0.9,2.1,2,2.1h22.8c1.1,0,2-0.9,2-2.1
			C36.4,47.3,35.5,46.3,34.4,46.3z"/>
	</g>
</g>
</svg>
