<?xml version="1.0" encoding="utf-8"?>
<!-- Generator: Adobe Illustrator 19.2.1, SVG Export Plug-In . SVG Version: 6.00 Build 0)  -->
<svg version="1.1" id="Layer_1" xmlns="http://www.w3.org/2000/svg" xmlns:xlink="http://www.w3.org/1999/xlink" x="0px" y="0px"
	 viewBox="0 0 112 69" style="enable-background:new 0 0 112 69;" xml:space="preserve">
<g>
	<g>
		<path d="M71.6,39.8c0.6,0.3,1.3,0.4,2,0.6c2.8,0.4,6.1-0.2,9.8-0.4c0.7,0.2,1.4,0.3,2.1,0.3c0.7,0,1.4-0.1,2.2-0.3
			c9.6,0.5,17.1,3.1,17.1-16.2C104.8,10.6,96.1,0,85.5,0C74.9,0,66.3,10.6,66.3,23.7C66.3,34.3,68.3,38.4,71.6,39.8z M69.8,17
			c0.1-0.2,0.4-0.5,0.7-0.7c2,2.8,7.2,2.2,11.8-1.3c1.1-0.9,2.1-1.9,3-2.9c0.1,0,0.2,0,0.3,0.1c0.4,0.1,0.8,0.2,1.3,0.4
			c0.4,0.2,0.8,0.3,1.2,0.6c0.4,0.2,0.8,0.5,1.1,0.7c0.3,0.3,0.7,0.6,1,0.9c0.3,0.3,0.6,0.6,0.8,0.9c0.2,0.3,0.4,0.6,0.6,0.8
			c0.2,0.3,0.3,0.5,0.4,0.7c0.2,0.4,0.3,0.6,0.3,0.6s0-0.2-0.1-0.7c0-0.2-0.1-0.5-0.2-0.8c-0.1-0.3-0.2-0.7-0.3-1
			c-0.1-0.4-0.3-0.8-0.5-1.2c-0.2-0.4-0.5-0.8-0.8-1.2c-0.3-0.4-0.6-0.8-1-1.2c-0.4-0.4-0.8-0.8-1.2-1.1c-0.4-0.3-0.8-0.6-1.3-0.8
			c0.2-0.4,0.4-0.8,0.5-1.2c1.6,0.7,3.3,1.6,4.6,2.9c4.8,4.8,2.9,10.3,6.6,6.6c0.6-0.6,1.1-1.2,1.4-1.8c0.1,0,0.3,0,0.4,0
			c0.5,0.1,0.8,0.5,1,0.8c0.5,0.8,0.6,2,0.3,3.2c-0.5,1.8-1.7,2.9-2.6,3l-0.8,0.1L98,24.1c-1.8,6.6-6.8,13.6-12.5,13.6
			c-5.6,0-10.6-7-12.5-13.6l-0.2-0.8l-0.8-0.1c-0.9-0.1-2.2-1.2-2.6-3C69.2,19.1,69.3,17.9,69.8,17z M100,42.1
			c-1.5,2.5-3.3,4.7-5.6,5.9c-4.8,2.4-8.3,4.4-8.3,4.4l0,0v0l0,0l0,0v0l0,0c0,0-3.5-2-8.3-4.4c-2.3-1.2-4.1-3.3-5.6-5.9
			c-7.1,2.8-12,9.4-12,15.1c0,6,0,11.8,0,11.8h52c0,0,0-5.8,0-11.8C112,51.5,107,44.9,100,42.1z"/>
	</g>
</g>
<path d="M43.2,36.6h-3.3c-3.7,0-6.7-3-6.7-6.6v-2.1c1.5-1.7,2.5-3.8,3.2-6c0.1-0.4,0.4-0.6,0.7-0.8c1.3-1.3,1.5-3.4,0.6-4.9
	c-0.1-0.2-0.4-0.4-0.4-0.7c0-1.9,0-3.9,0-5.8c-0.1-2.4-0.7-4.8-2.4-6.5c-1.3-1.4-3.2-2.2-5-2.6c-2.4-0.5-4.9-0.4-7.2,0.2
	c-2,0.5-4,1.7-5.2,3.5c-1.1,1.5-1.5,3.4-1.6,5.3c0,2,0,4,0,6c0,0.4-0.3,0.7-0.4,1c-0.9,1.6-0.5,3.9,0.9,5c0.4,0.3,0.4,0.7,0.6,1.1
	c0.6,2,1.7,3.8,3,5.4v2.2c0,3.7-3,6.6-6.7,6.6H10c0,0-6,1.7-10,10v3.3c0,1.8,1.5,3.3,3.3,3.3h46.6c1.8,0,3.3-1.5,3.3-3.3v-3.3
	C49.3,38.2,43.2,36.6,43.2,36.6z"/>
</svg>
