<?xml version="1.0" encoding="utf-8"?>
<!-- Generator: Adobe Illustrator 19.2.1, SVG Export Plug-In . SVG Version: 6.00 Build 0)  -->
<svg version="1.1" id="Layer_1" xmlns="http://www.w3.org/2000/svg" xmlns:xlink="http://www.w3.org/1999/xlink" x="0px" y="0px"
	 viewBox="0 0 57 67" style="enable-background:new 0 0 57 67;" xml:space="preserve">
<g>
	<g>
		<path d="M56.3,32.5c-0.7-0.6-1.8-0.5-2.4,0.3l-8.6,10.8l-1.7-2.3C43,40.6,42,40.4,41.2,41c-0.7,0.6-0.9,1.6-0.3,2.3l3,4
			c0.3,0.4,0.8,0.7,1.3,0.7c0,0,0,0,0,0c0.5,0,1-0.2,1.3-0.6l10-12.5C57.1,34.2,57,33.1,56.3,32.5z M54.5,41.7c-0.1,0-0.3,0-0.4,0.1
			L50.8,46c0,0.1-0.1,0.1-0.1,0.2v3.4H39.6V38.4h6.6c0.1,0,0.2,0,0.3-0.1l2.7-3.4c0.1-0.1,0.1-0.2,0-0.4c-0.1-0.1-0.2-0.2-0.3-0.2
			h-10c-1.9,0-3.4,1.5-3.4,3.4v12.5c0,1.9,1.5,3.4,3.4,3.4h12.5c1.9,0,3.4-1.5,3.4-3.4V42C54.8,41.9,54.7,41.7,54.5,41.7z
			 M10.8,50.6c-0.8,0-1.5,0.7-1.5,1.5s0.7,1.5,1.5,1.5h12c0.8,0,1.5-0.7,1.5-1.5s-0.7-1.5-1.5-1.5H10.8z M48.9,57.3h-3.4
			c-0.2,0-0.3,0.2-0.3,0.3v2.2c0,1.7-1.4,3.1-3.1,3.1H7.2c-1.7,0-3.1-1.4-3.1-3.1V15.2c0-1.7,1.4-3.1,3.1-3.1h2.7
			c0.7,1.9,2.6,3.2,4.7,3.2h20c2.1,0,4-1.3,4.7-3.2H42c1.7,0,3.1,1.4,3.1,3.1v15c0,0.2,0.2,0.3,0.3,0.3h3.4c0.2,0,0.3-0.2,0.3-0.3
			v-15c0-4-3.2-7.2-7.2-7.2h-2.9c-0.8-1.7-2.6-2.9-4.6-2.9h-4.9c0-2.8-2.3-5.1-5.1-5.1c-2.8,0-5.1,2.3-5.1,5.1h-4.9
			c-2,0-3.7,1.2-4.6,2.9H7.2c-4,0-7.2,3.2-7.2,7.2v44.6c0,4,3.2,7.2,7.2,7.2H42c4,0,7.2-3.2,7.2-7.2v-2.2
			C49.2,57.4,49,57.3,48.9,57.3z M24.6,3.2c1.1,0,2,0.9,2,2c0,1.1-0.9,2-2,2s-2-0.9-2-2C22.6,4.1,23.5,3.2,24.6,3.2z M38.4,21.1
			H10.8c-0.8,0-1.5,0.7-1.5,1.5c0,0.8,0.7,1.5,1.5,1.5h27.6c0.8,0,1.5-0.7,1.5-1.5C39.9,21.7,39.2,21.1,38.4,21.1z M39.9,28.1
			c0-0.8-0.7-1.5-1.5-1.5H10.8c-0.8,0-1.5,0.7-1.5,1.5c0,0.8,0.7,1.5,1.5,1.5h27.6C39.2,29.6,39.9,29,39.9,28.1z"/>
	</g>
</g>
</svg>
