<?xml version="1.0" encoding="utf-8"?>
<!-- Generator: Adobe Illustrator 19.2.1, SVG Export Plug-In . SVG Version: 6.00 Build 0)  -->
<svg version="1.1" id="Layer_1" xmlns="http://www.w3.org/2000/svg" xmlns:xlink="http://www.w3.org/1999/xlink" x="0px" y="0px"
	 viewBox="0 0 54 66" style="enable-background:new 0 0 54 66;" xml:space="preserve">
<g>
	<g>
		<path d="M17.7,19.2c0.8,1.5,5.6,2.3,8,2.2c2.4-0.1,7.3-1.3,7.1-3.6c-0.3-4.3,2-10,2.4-10.8c0.9-1.6,1-5-2.9-3.4
			c-0.9,0.4-3.1,2.9-4-0.1c-1.7-5.4-5.5-3.9-6.4-0.4c-0.6,2.4-2.9,2.6-5.6,2.3c-3.1-0.3-3.5,1.9-2.5,3.7
			C14.4,10.2,16.8,17.5,17.7,19.2z M34.4,22.1c-0.5-0.2-1.5,2.7-8.5,3c-6.4,0.3-8.2-2.3-8.6-2.2C7.9,26.6,0,37.4,0,48.3
			C0,62.3,7.1,66,27,66c19.8,0,27-3.8,27-17.7C54,36.5,44.3,25.3,34.4,22.1z M27.2,53.1V56c0,0.2-0.2,0.4-0.3,0.4h-2.3
			c-0.2,0-0.3-0.2-0.3-0.4v-2.6c-1.6-0.1-3.3-0.6-4.3-1.4c-0.1-0.1-0.2-0.3-0.1-0.4l0.7-3c0-0.1,0.1-0.2,0.2-0.3c0.1,0,0.2,0,0.3,0
			c0.7,0.5,2.2,1.3,4.1,1.3c1.6,0,2.6-0.8,2.6-2c0-1.2-0.8-2-2.8-2.8c-2.5-1-5-2.5-5-5.9c0-2.8,1.7-5,4.5-5.6v-2.7
			c0-0.2,0.2-0.4,0.3-0.4H27c0.2,0,0.3,0.2,0.3,0.4v2.5c1.7,0.1,2.9,0.7,3.6,1.1c0.1,0.1,0.2,0.3,0.2,0.5l-0.7,2.9
			c0,0.1-0.1,0.2-0.2,0.3c-0.1,0.1-0.2,0-0.3,0c-0.7-0.4-1.9-1-3.6-1c-1.4,0-2.3,0.7-2.3,1.8c0,1,0.8,1.7,3.2,2.7
			c3.3,1.4,4.7,3.2,4.7,6.1C31.9,50.2,30.1,52.5,27.2,53.1z"/>
	</g>
</g>
</svg>
